<?xml version="1.0" standalone="no"?><!DOCTYPE svg PUBLIC "-//W3C//DTD SVG 1.1//EN" "http://www.w3.org/Graphics/SVG/1.1/DTD/svg11.dtd"><svg t="1609400759260" class="icon" viewBox="0 0 1024 1024" version="1.1" xmlns="http://www.w3.org/2000/svg" p-id="1242" xmlns:xlink="http://www.w3.org/1999/xlink" width="200" height="200"><defs><style type="text/css"></style></defs><path d="M860.672 439.7056A149.0432 149.0432 0 0 1 813.1584 358.4a150.9888 150.9888 0 0 0-195.2768-111.616 151.6544 151.6544 0 0 1-52.5312 7.424 126.72 126.72 0 0 1-143.36 27.648 153.6 153.6 0 0 1 0.9728 16.896 150.784 150.784 0 0 1-150.6816 150.528h-2.048a148.48 148.48 0 0 0 9.8304 213.7088A149.1968 149.1968 0 0 1 327.68 744.448a150.9376 150.9376 0 0 0 195.2768 111.616 152.2688 152.2688 0 0 1 95.0272 0 150.9376 150.9376 0 0 0 195.2768-111.616 149.1968 149.1968 0 0 1 47.5136-81.5104 148.48 148.48 0 0 0-0.1024-223.232zM552.96 672.768a129.3824 129.3824 0 1 1 130.6624-129.3824A129.9968 129.9968 0 0 1 552.96 672.768z" fill="#FFAECF" p-id="1243"></path><path d="M416.9728 839.168a167.424 167.424 0 0 1-83.7632-22.4256 165.0176 165.0176 0 0 1-79.0528-109.0048A134.4 134.4 0 0 0 211.5072 634.88a163.84 163.84 0 0 1-10.8032-236.0832 16.128 16.128 0 0 1 11.3664-4.5568h1.8432a135.5776 135.5776 0 0 0 135.424-135.5776 141.1072 141.1072 0 0 0-0.8704-15.36 15.36 15.36 0 0 1 21.5552-15.7184 111.2064 111.2064 0 0 0 125.9008-24.32 15.36 15.36 0 0 1 11.5712-4.6592 139.3664 139.3664 0 0 0 47.2576-6.656 167.4752 167.4752 0 0 1 136.0384 14.0288 165.12 165.12 0 0 1 79.0528 109.056 134.7584 134.7584 0 0 0 42.6496 73.1136 163.84 163.84 0 0 1 0 246.272 134.4 134.4 0 0 0-42.6496 73.1136 165.0176 165.0176 0 0 1-79.0528 109.0048 167.68 167.68 0 0 1-136.0384 14.08 137.8304 137.8304 0 0 0-85.504 0 168.0896 168.0896 0 0 1-52.2752 8.5504zM218.6752 424.96a133.12 133.12 0 0 0 13.1584 186.8288A165.4784 165.4784 0 0 1 284.2624 701.44a134.2976 134.2976 0 0 0 64.3072 88.6784 136.8576 136.8576 0 0 0 111.104 11.4688 168.448 168.448 0 0 1 104.6528 0 136.8576 136.8576 0 0 0 111.104-11.4688A134.2976 134.2976 0 0 0 739.7376 701.44a165.4784 165.4784 0 0 1 52.4288-89.9072 133.12 133.12 0 0 0 0-200.192 165.6832 165.6832 0 0 1-52.4288-89.9072 134.144 134.144 0 0 0-64.3072-88.6784 136.6528 136.6528 0 0 0-111.104-11.4688 166.912 166.912 0 0 1-51.2 8.2432 142.08 142.08 0 0 1-133.12 34.2016A166.4 166.4 0 0 1 218.6752 424.96z m217.6 325.5296a15.36 15.36 0 0 1-15.36-15.36v-26.9824a15.36 15.36 0 0 1 30.72 0v26.9824a15.36 15.36 0 0 1-15.36 15.1552z m247.7568-3.9424a15.36 15.36 0 0 1-10.8544-4.4544l-19.2512-19.0976a15.36 15.36 0 1 1 21.6064-21.8112l19.3024 19.0976a15.36 15.36 0 0 1-10.8032 26.2656z m-72.3456-17.2032h-27.2384a15.36 15.36 0 0 1 0-30.72h27.2384a15.36 15.36 0 0 1 0 30.72z m-263.168-30.72a15.36 15.36 0 0 1-15.36-15.36 15.36 15.36 0 0 1 4.5568-10.9056l19.3024-19.0976a15.36 15.36 0 1 1 21.8624 21.8112l-19.3024 19.0976a15.36 15.36 0 0 1-11.0592 4.4544z m298.8544-28.672a15.36 15.36 0 0 1-10.8032-26.2656l19.3024-19.0464a15.36 15.36 0 1 1 21.6064 21.8112l-19.3024 19.1488a15.36 15.36 0 0 1-10.8032 4.352zM512 656.2304a144.7424 144.7424 0 1 1 146.0224-144.7424A145.5616 145.5616 0 0 1 512 656.2304z m0-258.7648a114.0224 114.0224 0 1 0 115.3024 114.0224A114.7904 114.7904 0 0 0 512 397.4656z m-229.888 180.3776A15.36 15.36 0 0 1 271.36 573.44l-19.3024-19.0976a15.36 15.36 0 1 1 21.5552-21.8624l19.3024 19.0976a15.36 15.36 0 0 1-10.8032 26.2656zM315.4432 512a15.36 15.36 0 0 1-10.8032-26.2656l19.3024-19.0976a15.36 15.36 0 1 1 21.6064 21.8112l-19.3024 19.0976a15.36 15.36 0 0 1-10.8032 4.4544z m417.1264-45.2608h-27.2896a15.36 15.36 0 0 1 0-30.72h27.2896a15.36 15.36 0 0 1 0 30.72z m-67.84-102.4a15.36 15.36 0 0 1-10.8032-26.2656l19.2512-19.0976a15.36 15.36 0 1 1 21.6576 21.8112l-19.3024 19.0976a15.36 15.36 0 0 1-10.8032 4.6592z m-122.2144-15.36h-27.2384a15.36 15.36 0 0 1 0-30.72H542.72a15.36 15.36 0 1 1 0 30.72z m61.44-65.3824a15.36 15.36 0 0 1-10.8032-4.4544l-19.2512-19.0976a15.36 15.36 0 0 1-4.5568-10.9056 15.36 15.36 0 0 1 26.1632-10.9056l19.2512 19.0976a15.36 15.36 0 0 1 4.5568 10.9056 15.36 15.36 0 0 1-15.36 15.36z m-383.5392-9.5744a15.36 15.36 0 0 1-10.8032-26.2656l19.2512-19.0976a15.36 15.36 0 0 1 21.6576 21.8624l-19.3024 19.0976a15.36 15.36 0 0 1-10.8032 4.4032zM367.8208 153.6a15.36 15.36 0 0 1-10.8032-4.4032L337.92 129.8432a15.36 15.36 0 0 1-4.5568-10.9056 15.36 15.36 0 0 1 4.4544-10.8032 15.36 15.36 0 0 1 21.7088 0l19.3536 18.944a15.36 15.36 0 0 1 4.3008 11.1616 15.36 15.36 0 0 1-15.36 15.36z m-212.9408-9.7792h-27.2384a15.36 15.36 0 0 1 0-30.72h27.2384a15.36 15.36 0 0 1 0 30.72z" fill="#8E5178" p-id="1244"></path><path d="M512 656.2304a144.7424 144.7424 0 1 1 146.0224-144.7424A145.5616 145.5616 0 0 1 512 656.2304z m0-258.7648a114.0224 114.0224 0 1 0 115.3024 114.0224A114.7904 114.7904 0 0 0 512 397.4656z" fill="#8E5178" p-id="1245"></path><path d="M512 930.4064c-233.216 0-422.9632-187.9552-422.9632-418.9184a414.72 414.72 0 0 1 22.5792-135.2704A15.36 15.36 0 0 1 135.0656 368.64a134.2976 134.2976 0 0 0 76.8 25.2928A15.36 15.36 0 0 1 222.976 419.84a133.12 133.12 0 0 0 8.8576 191.6416A165.4784 165.4784 0 0 1 284.2624 701.44a134.2976 134.2976 0 0 0 64.3072 88.6784 136.8576 136.8576 0 0 0 111.104 11.4688 168.448 168.448 0 0 1 104.6528 0 136.8576 136.8576 0 0 0 111.104-11.4688A134.2976 134.2976 0 0 0 739.7376 701.44a165.4784 165.4784 0 0 1 52.4288-89.9072 133.12 133.12 0 0 0 0-200.192 165.6832 165.6832 0 0 1-52.4288-89.9072 134.144 134.144 0 0 0-64.3072-88.6784 136.6528 136.6528 0 0 0-111.104-11.4688 166.5536 166.5536 0 0 1-57.856 8.1408 15.36 15.36 0 0 1-10.5472-26.0096 110.6944 110.6944 0 0 0 31.232-77.312 117.76 117.76 0 0 0-1.024-15.104 15.36 15.36 0 0 1 16.2816-17.408c220.16 15.36 392.5504 199.0656 392.5504 417.8432 0 230.9632-189.7472 418.9696-422.9632 418.9696zM134.8096 404.736a384 384 0 0 0-15.0528 106.752c0 214.016 175.9744 388.1984 392.2432 388.1984s392.2432-174.08 392.2432-388.1984c0-196.864-150.784-362.9056-346.368-385.536a141.4144 141.4144 0 0 1-18.432 70.0416 143.36 143.36 0 0 0 15.36-4.0448 167.4752 167.4752 0 0 1 136.0384 14.0288 165.12 165.12 0 0 1 79.0528 109.056 134.7584 134.7584 0 0 0 42.6496 73.1136 163.84 163.84 0 0 1 0 246.272 134.4 134.4 0 0 0-42.6496 73.1136 165.0176 165.0176 0 0 1-79.0528 109.0048 167.68 167.68 0 0 1-136.0384 14.08 137.8304 137.8304 0 0 0-85.504 0 167.68 167.68 0 0 1-136.0384-14.08 165.0176 165.0176 0 0 1-79.0528-109.0048A134.4 134.4 0 0 0 211.5072 634.88a163.84 163.84 0 0 1-29.0816-212.8384 163.5328 163.5328 0 0 1-47.616-17.3056z" fill="#8E5178" p-id="1246"></path></svg>