<?xml version="1.0" encoding="UTF-8"?>
<svg width="296px" height="397px" viewBox="0 0 296 397" version="1.1" xmlns="http://www.w3.org/2000/svg" xmlns:xlink="http://www.w3.org/1999/xlink">
    <!-- Generator: Sketch 60.1 (88133) - https://sketch.com -->
    <title>花卉7</title>
    <desc>Created with Sketch.</desc>
    <defs>
        <polygon id="path-1" points="0.2516 0.5481 228.1896 0.5481 228.1896 34 0.2516 34"></polygon>
        <path d="M39.081,98.684 C16.825,143.617 27.743,205.766 9.267,215.424 L9.267,215.424 C-9.211,225.084 6.327,251.959 6.327,251.959 L6.327,251.959 C6.327,251.959 2.128,271.276 38.242,251.959 L38.242,251.959 C74.356,232.642 91.152,203.247 91.152,153.439 L91.152,153.439 C91.152,99.105 133.146,73.908 103.331,20.158 L103.331,20.158 C94.181,6.576 87.022,0.994999463 81.149,0.994999463 L81.149,0.994999463 C61.417,1.002 56.233,64.058 39.081,98.684" id="path-3"></path>
        <linearGradient x1="9.04504366e-05%" y1="49.9999479%" x2="99.9999943%" y2="49.9999479%" id="linearGradient-5">
            <stop stop-color="#ACC3AE" offset="0%"></stop>
            <stop stop-color="#ACC3AE" offset="100%"></stop>
        </linearGradient>
        <polygon id="path-6" points="0 0.678445158 161.253361 0.678445158 161.253361 187.598223 0 187.598223"></polygon>
        <polygon id="path-8" points="0.4961 0.1246 264.946 0.1246 264.946 142.0376 0.4961 142.0376"></polygon>
    </defs>
    <g id="页面-1" stroke="none" stroke-width="1" fill="none" fill-rule="evenodd">
        <g id="画板" transform="translate(-389.000000, -1997.000000)">
            <g id="花卉7" transform="translate(389.000000, 1996.000000)">
                <g id="编组" transform="translate(46.000000, 364.005000)">
                    <mask id="mask-2" fill="white">
                        <use xlink:href="#path-1"></use>
                    </mask>
                    <g id="Clip-2"></g>
                    <path d="M228.1896,17.2741 C228.1896,26.5111 177.1646,34.0001 114.2206,34.0001 C51.2766,34.0001 0.2516,26.5111 0.2516,17.2741 C0.2516,8.0371 51.2766,0.5481 114.2206,0.5481 C177.1646,0.5481 228.1896,8.0371 228.1896,17.2741" id="Fill-1" fill="#C47F66" mask="url(#mask-2)"></path>
                </g>
                <g id="编组" transform="translate(166.000000, 0.005000)">
                    <mask id="mask-4" fill="white">
                        <use xlink:href="#path-3"></use>
                    </mask>
                    <g id="Clip-4"></g>
                    <path d="M39.081,98.684 C16.825,143.617 27.743,205.766 9.267,215.424 L9.267,215.424 C-9.211,225.084 6.327,251.959 6.327,251.959 L6.327,251.959 C6.327,251.959 2.128,271.276 38.242,251.959 L38.242,251.959 C74.356,232.642 91.152,203.247 91.152,153.439 L91.152,153.439 C91.152,99.105 133.146,73.908 103.331,20.158 L103.331,20.158 C94.181,6.576 87.022,0.994999463 81.149,0.994999463 L81.149,0.994999463 C61.417,1.002 56.233,64.058 39.081,98.684" id="Fill-3" fill="url(#linearGradient-5)" mask="url(#mask-4)"></path>
                </g>
                <g id="编组" transform="translate(0.000000, 34.005000)">
                    <path d="M183.7961,211.3268 C183.3861,211.3268 182.9781,211.1658 182.6721,210.8468 C182.0771,210.2258 182.0991,209.2408 182.7201,208.6468 C183.1241,208.2598 223.1821,169.5508 221.6811,140.2748 C220.9511,126.0488 222.7711,107.2868 226.6721,88.8008 C230.4171,71.0558 235.4931,56.4858 240.2501,49.8268 C249.7271,36.5598 249.6781,10.6698 248.9131,2.6458 C248.8321,1.7898 249.4591,1.0308 250.3151,0.9498 C251.1701,0.8678 251.9301,1.4948 252.0111,2.3508 C252.8041,10.6748 252.8101,37.5968 242.7821,51.6358 C233.6031,64.4868 223.2291,109.7018 224.7881,140.1158 C225.4521,153.0678 218.9121,168.9378 205.3501,187.2858 C195.3321,200.8378 184.9751,210.7958 184.8711,210.8948 C184.5701,211.1828 184.1831,211.3268 183.7961,211.3268" id="Fill-5" fill="#D6EDD6"></path>
                    <g transform="translate(0.000000, 50.000000)">
                        <mask id="mask-7" fill="white">
                            <use xlink:href="#path-6"></use>
                        </mask>
                        <g id="Clip-8"></g>
                        <path d="M121.0954,176.3571 C121.0954,176.3571 95.4794,136.8841 78.6824,135.6251 C61.8854,134.3641 -3.6056,108.7491 0.1554,40.7201 C3.9164,-27.3089 58.1064,6.2861 78.2624,32.7411 C98.4194,59.1971 170.1734,131.2061 160.3314,168.6891 C150.4904,206.1721 121.0954,176.3571 121.0954,176.3571" id="Fill-7" fill="#8CB599" mask="url(#mask-7)"></path>
                    </g>
                    <path d="M139.3527,217.7194 C138.8127,217.7194 138.2877,217.4384 138.0007,216.9364 C137.4417,215.9584 81.6457,119.0064 43.2487,100.7584 C42.4737,100.3894 42.1437,99.4614 42.5117,98.6854 C42.8807,97.9084 43.8087,97.5784 44.5847,97.9474 C61.1227,105.8064 82.3367,127.9844 107.6387,163.8634 C126.4117,190.4844 140.5607,215.1454 140.7017,215.3914 C141.1287,216.1364 140.8697,217.0874 140.1237,217.5144 C139.8797,217.6534 139.6147,217.7194 139.3527,217.7194" id="Fill-9" fill="#E8F9E8"></path>
                    <path d="M168.1281,229.1911 C168.1281,229.1911 199.6221,210.6941 192.4831,151.0931 C185.3451,91.4921 140.4671,92.5201 139.3901,45.7641 C138.3131,-0.9919 110.1771,12.8811 101.7781,32.9201 C93.3801,52.9581 93.8001,120.2651 122.7751,158.8001 C151.7501,197.3361 155.1091,227.1351 155.1091,227.1351 L168.1281,229.1911 Z" id="Fill-11" fill="#BFE1B9"></path>
                    <path d="M166.0568,216.0456 C165.9958,216.0456 165.9338,216.0416 165.8718,216.0336 C165.0188,215.9336 164.4098,215.1586 164.5098,214.3066 C164.5308,214.1346 166.5348,196.9646 165.9568,178.5246 C165.2078,154.5456 160.5288,139.3346 152.4258,134.5326 C142.5798,128.6976 132.6648,114.4876 125.2238,95.5456 C118.4198,78.2276 115.5348,61.2466 117.8728,52.2836 C118.0898,51.4516 118.9388,50.9536 119.7708,51.1706 C120.6018,51.3876 121.1008,52.2376 120.8838,53.0686 C118.7348,61.3076 121.6418,77.9206 128.1198,94.4076 C135.2068,112.4486 144.8868,126.4466 154.0118,131.8556 C175.6388,144.6706 167.9388,211.8196 167.5998,214.6726 C167.5058,215.4636 166.8338,216.0456 166.0568,216.0456" id="Fill-13" fill="#E8F9E8"></path>
                    <path d="M207.3752,347.1169 L120.0672,347.1169 C72.2102,347.1169 33.4152,308.3209 33.4152,260.4649 L33.4152,240.3349 C33.4152,223.0539 47.4242,209.0439 64.7062,209.0439 L262.7362,209.0439 C280.0192,209.0439 294.0272,223.0539 294.0272,240.3349 L294.0272,260.4649 C294.0272,308.3209 255.2312,347.1169 207.3752,347.1169" id="Fill-15" fill="#D19386"></path>
                    <g transform="translate(31.000000, 207.000000)">
                        <mask id="mask-9" fill="white">
                            <use xlink:href="#path-8"></use>
                        </mask>
                        <g id="Clip-18"></g>
                        <path d="M34.0241,3.9636 C17.6521,3.9636 4.3341,17.2806 4.3341,33.6526 L4.3341,52.5836 C4.3341,99.7946 42.7401,138.1996 89.9481,138.1996 L175.4941,138.1996 C222.7031,138.1996 261.1081,99.7946 261.1081,52.5836 L261.1081,33.6526 C261.1081,17.2806 247.7901,3.9636 231.4181,3.9636 L34.0241,3.9636 Z M175.4941,142.0376 L89.9481,142.0376 C40.6231,142.0376 0.4961,101.9076 0.4961,52.5836 L0.4961,33.6526 C0.4961,15.1676 15.5361,0.1246 34.0241,0.1246 L231.4181,0.1246 C249.9061,0.1246 264.9461,15.1676 264.9461,33.6526 L264.9461,52.5836 C264.9461,101.9076 224.8191,142.0376 175.4941,142.0376 L175.4941,142.0376 Z" id="Fill-17" fill="#D19386" mask="url(#mask-9)"></path>
                    </g>
                    <path d="M207.3752,345.5602 L120.0672,345.5602 C72.2102,345.5602 33.4152,306.7652 33.4152,258.9082 L33.4152,238.7782 C33.4152,221.4972 47.4242,207.4882 64.7062,207.4882 L262.7362,207.4882 C280.0192,207.4882 294.0272,221.4972 294.0272,238.7782 L294.0272,258.9082 C294.0272,306.7652 255.2312,345.5602 207.3752,345.5602" id="Fill-19" fill="#EFBDA5"></path>
                    <path d="M207.3752,345.5602 L132.1252,345.5602 C84.2692,345.5602 45.4732,306.7652 45.4732,258.9082 L45.4732,238.7782 C45.4732,221.4972 59.4822,207.4882 76.7642,207.4882 L262.7362,207.4882 C280.0192,207.4882 294.0272,221.4972 294.0272,238.7782 L294.0272,258.9082 C294.0272,306.7652 255.2312,345.5602 207.3752,345.5602" id="Fill-21" fill="#FFFAF8"></path>
                    <path d="M193.3722,345.5602 L132.1252,345.5602 C84.2682,345.5602 45.4732,306.7652 45.4732,258.9082 L45.4732,238.7782 C45.4732,221.4972 59.4822,207.4882 76.7642,207.4882 L248.7332,207.4882 C266.0152,207.4882 280.0242,221.4972 280.0242,238.7782 L280.0242,258.9082 C280.0242,306.7652 241.2282,345.5602 193.3722,345.5602" id="Fill-23" fill="#FFD3C0"></path>
                </g>
            </g>
        </g>
    </g>
</svg>