<?xml version="1.0" encoding="UTF-8"?>
<svg width="431px" height="238px" viewBox="0 0 431 238" version="1.1" xmlns="http://www.w3.org/2000/svg" xmlns:xlink="http://www.w3.org/1999/xlink">
    <!-- Generator: Sketch 60.1 (88133) - https://sketch.com -->
    <title>收音机</title>
    <desc>Created with Sketch.</desc>
    <defs>
        <polygon id="path-1" points="0 0.709 430.113 0.709 430.113 161 0 161"></polygon>
        <polygon id="path-3" points="0 238 430.113 238 430.113 0.35 0 0.35"></polygon>
    </defs>
    <g id="页面-1" stroke="none" stroke-width="1" fill="none" fill-rule="evenodd">
        <g id="画板" transform="translate(-1872.000000, -1393.000000)">
            <g id="收音机" transform="translate(1872.000000, 1392.000000)">
                <polygon id="Fill-1" fill="#7F524F" points="328.7097 1.0005 250.8487 78.8625 254.6267 82.6395 332.4877 4.7785"></polygon>
                <polygon id="Fill-2" fill="#7F524F" points="88.9929 1.0005 85.2149 4.7785 163.0759 82.6395 166.8549 78.8625"></polygon>
                <g id="编组" transform="translate(0.000000, 0.650000)">
                    <g transform="translate(0.000000, 77.000000)">
                        <mask id="mask-2" fill="white">
                            <use xlink:href="#path-1"></use>
                        </mask>
                        <g id="Clip-4"></g>
                        <path d="M425.4287,161 L4.6847,161 C2.0977,161 -0.0003,158.902 -0.0003,156.315 L-0.0003,5.394 C-0.0003,2.807 2.0977,0.709 4.6847,0.709 L425.4287,0.709 C428.0157,0.709 430.1137,2.807 430.1137,5.394 L430.1137,156.315 C430.1137,158.902 428.0157,161 425.4287,161" id="Fill-3" fill="#F4ADA2" mask="url(#mask-2)"></path>
                    </g>
                    <path d="M397.2432,224.6426 L281.3202,224.6426 C276.4452,224.6426 272.4942,220.6906 272.4942,215.8166 L272.4942,99.8926 C272.4942,95.0186 276.4452,91.0666 281.3202,91.0666 L397.2432,91.0666 C402.1182,91.0666 406.0692,95.0186 406.0692,99.8926 L406.0692,215.8166 C406.0692,220.6906 402.1182,224.6426 397.2432,224.6426" id="Fill-5" fill="#D3857D"></path>
                    <path d="M395.3838,157.8545 C395.3838,188.8385 370.2658,213.9565 339.2808,213.9565 C308.2978,213.9565 283.1798,188.8385 283.1798,157.8545 C283.1798,126.8705 308.2978,101.7525 339.2808,101.7525 C370.2658,101.7525 395.3838,126.8705 395.3838,157.8545" id="Fill-7" fill="#7F524F"></path>
                    <path d="M213.7207,181.8984 C213.7207,186.3244 210.1327,189.9134 205.7057,189.9134 C201.2797,189.9134 197.6917,186.3244 197.6917,181.8984 C197.6917,177.4714 201.2797,173.8834 205.7057,173.8834 C210.1327,173.8834 213.7207,177.4714 213.7207,181.8984" id="Fill-9" fill="#7F524F"></path>
                    <path d="M174.9839,181.8984 C174.9839,186.3244 171.3959,189.9134 166.9689,189.9134 C162.5429,189.9134 158.9549,186.3244 158.9549,181.8984 C158.9549,177.4714 162.5429,173.8834 166.9689,173.8834 C171.3959,173.8834 174.9839,177.4714 174.9839,181.8984" id="Fill-11" fill="#7F524F"></path>
                    <path d="M136.2471,181.8984 C136.2471,186.3244 132.6591,189.9134 128.2321,189.9134 C123.8061,189.9134 120.2181,186.3244 120.2181,181.8984 C120.2181,177.4714 123.8061,173.8834 128.2321,173.8834 C132.6591,173.8834 136.2471,177.4714 136.2471,181.8984" id="Fill-13" fill="#7F524F"></path>
                    <mask id="mask-4" fill="white">
                        <use xlink:href="#path-3"></use>
                    </mask>
                    <g id="Clip-16"></g>
                    <polygon id="Fill-15" fill="#FFCFCF" mask="url(#mask-4)" points="221.735 224.643 232.421 224.643 232.421 205.942 221.735 205.942"></polygon>
                    <polygon id="Fill-17" fill="#FFCFCF" mask="url(#mask-4)" points="198.226 224.643 208.912 224.643 208.912 205.942 198.226 205.942"></polygon>
                    <polygon id="Fill-18" fill="#FFCFCF" mask="url(#mask-4)" points="174.717 224.643 185.403 224.643 185.403 205.942 174.717 205.942"></polygon>
                    <polygon id="Fill-19" fill="#FFCFCF" mask="url(#mask-4)" points="151.208 224.643 161.894 224.643 161.894 205.942 151.208 205.942"></polygon>
                    <polygon id="Fill-20" fill="#FFCFCF" mask="url(#mask-4)" points="127.698 224.643 138.384 224.643 138.384 205.942 127.698 205.942"></polygon>
                    <polygon id="Fill-21" fill="#FFCFCF" mask="url(#mask-4)" points="104.189 224.643 114.875 224.643 114.875 205.942 104.189 205.942"></polygon>
                    <path d="M28.3794,107.5444 C26.2354,107.5444 24.4934,109.2874 24.4934,111.4304 L24.4934,121.4624 C24.4934,123.6054 26.2354,125.3484 28.3794,125.3484 L246.7894,125.3484 C248.9284,125.3484 250.6714,123.6054 250.6714,121.4624 L250.6714,111.4304 C250.6714,109.2874 248.9284,107.5444 246.7894,107.5444 L28.3794,107.5444 Z M246.7894,128.9174 L28.3794,128.9174 C24.2704,128.9174 20.9244,125.5734 20.9244,121.4624 L20.9244,111.4304 C20.9244,107.3194 24.2704,103.9754 28.3794,103.9754 L246.7894,103.9754 C250.8984,103.9754 254.2404,107.3194 254.2404,111.4304 L254.2404,121.4624 C254.2404,125.5734 250.8984,128.9174 246.7894,128.9174 L246.7894,128.9174 Z" id="Fill-22" fill="#D3857D" mask="url(#mask-4)"></path>
                </g>
            </g>
        </g>
    </g>
</svg>